# xmcd
#
# Track frame offsets:
#	150
#	13364
#	26103
#	37034
#	45997
#	53124
#	62368
#	74823
#	85189
#	93390
#	104199
#	114551
#	124960
#	135500
#	145846
#	154183
#	161588
#	170332
#	180581
#	191920
#
# Disc length: 2656 seconds
#
# Revision: 1
# Processed by: cddbd v1.5.2PL0 Copyright (c) Steve Scherf et al.
# Submitted via: audiograbber 1.83.01
#
DISCID=230a5e14
DTITLE=Various Artist - Rock and Roll Country Style, Vol. 2
DYEAR=2004
DGENRE=Country
TTITLE0=Charlie Huff - She's My Baby
TTITLE1=Elva Carver - Two Ton Love
TTITLE2=Glenn Barber - Styles And Ways Of The World
TTITLE3=Wayne Busby - I Carry A Torch
TTITLE4=Tex  Jackson - Nine Dang Pins
TTITLE5=Al Sweatt  - Little Fo-Mo-Co
TTITLE6=Nick Foley - 3-0-3
TTITLE7=R.D. Hendon - Music Makin' Mama From Tennessee
TTITLE8=Howard Collins - Friday Blues
TTITLE9=Charlie Huff - Can't Tame Wild Women
TTITLE10=Charles Norris - I Want You For My Own
TTITLE11=Bill Woods - Ask Me No Questions
TTITLE12=Dreamy Joe - Hardin's Bread Boogie
TTITLE13=Jimmy Heath - Little Darlin'
TTITLE14=Charlie Huff - Show Me The Way To Go Home
TTITLE15=Wayne Busby - Live Your Life With Care
TTITLE16=Otis White - A Losing Game
TTITLE17=Johnny Tyler - Devil's Hot Rod
TTITLE18=Charles Norris - Explain This Thing To Me
TTITLE19=Bill Loop - My Foolish Heart
EXTD=American Country Music Record
EXTT0=
EXTT1=
EXTT2=
EXTT3=
EXTT4=
EXTT5=
EXTT6=
EXTT7=
EXTT8=
EXTT9=
EXTT10=
EXTT11=
EXTT12=
EXTT13=
EXTT14=
EXTT15=
EXTT16=
EXTT17=
EXTT18=
EXTT19=
PLAYORDER=
